<svg width="1024" height="1024" viewBox="0 0 1024 1024" fill="none" xmlns="http://www.w3.org/2000/svg">
<path d="M443.055 800.253C469.774 806.617 496.587 807.959 523.328 806.086C595.247 801.047 656.854 772.731 708.234 722.021C748.562 682.218 774.726 634.613 787.841 579.661C794.611 551.297 796.954 522.417 795.061 493.456C791.419 437.758 774.373 386.488 740.469 341.632C700.668 288.973 648.934 253.468 585.1 236.155C561.547 229.766 537.335 227.829 512.989 227.81C507.854 227.806 502.692 228.429 497.592 229.127C494.375 229.566 491.186 230.924 490.884 234.743C490.609 238.216 493.162 240.111 496.075 241.331C505.448 245.255 514.774 249.277 523.775 254.006C588.152 287.832 628.3 340.72 646.62 410.624C652.215 431.973 654.614 453.807 653.572 475.849C650.417 542.65 625.63 599.7 575.268 644.448C541.345 674.589 501.669 693.507 456.554 699.669C383.408 709.66 318.958 689.782 263.107 641.663C260.204 639.162 257.346 636.609 254.437 634.114C251.921 631.957 249.222 631.07 246.343 633.421C243.527 635.721 242.869 638.76 244.326 641.949C246.054 645.729 248.158 649.338 250.143 652.998C273.921 696.854 305.805 733.394 347.748 760.779C376.046 779.255 406.647 792.329 439.75 799.403C440.724 799.611 441.676 799.922 443.055 800.253Z" fill="black"/>
<path d="M272.085 216.083C261.331 229.83 246.871 236.937 230.913 241.595C227.408 242.618 223.873 243.537 220.342 244.467C217.56 245.2 215.245 246.678 214.927 249.644C214.597 252.719 217.007 254.378 219.378 255.693C222.907 257.65 226.876 258.363 230.724 259.384C251.167 264.807 267.68 275.702 279.252 293.722C286.538 305.067 289.383 317.836 291.64 330.802C293.575 341.923 294.744 353.152 295.784 364.392C295.92 365.863 296.392 367.326 296.871 368.738C297.695 371.164 299.492 372.734 302.003 372.865C304.635 373.002 306.285 371.246 307.179 368.9C309.274 363.402 309.496 357.54 310.32 351.804C312.373 337.514 313.939 323.122 318.559 309.348C327.28 283.352 345.807 267.882 371.619 260.352C377.041 258.77 382.509 257.336 387.885 255.614C390.838 254.667 393.45 253.032 393.251 249.316C393.052 245.607 390.322 244.331 387.26 243.63C375.748 240.995 364.272 238.374 353.791 232.532C333.362 221.147 320.651 204.299 316.333 181.156C313.564 166.314 311.435 151.382 309.28 136.449C309.068 134.983 308.645 133.521 308.125 132.13C307.191 129.634 305.599 127.698 302.676 127.787C299.713 127.877 297.623 129.498 296.768 132.331C294.641 139.377 294.566 146.737 293.696 153.97C291.032 176.138 286.363 197.587 272.085 216.083Z" fill="black"/>
<path d="M446.13 381.893C436.059 373 433.652 361.042 431.384 349.044C430.522 344.481 430.024 339.843 429.021 335.314C428.583 333.337 427.96 330.741 425.073 330.938C422.664 331.103 421.995 333.158 421.569 335.198C420.079 342.342 419.528 349.624 417.896 356.774C413.719 375.086 402.645 386.595 384.884 392.107C382.042 392.989 377.876 393.113 377.927 397.299C377.979 401.483 382.15 401.419 385.003 402.333C410.221 410.42 416.975 425.851 419.677 447.309C420.257 451.914 420.756 456.532 421.428 461.124C421.721 463.125 422.278 465.249 424.943 465.195C427.557 465.142 428.01 463.119 428.357 461.049C429.644 453.361 430.884 445.663 432.291 437.996C435.682 419.514 447.587 408.713 464.524 402.495C467.521 401.395 471.986 401.436 471.918 397.132C471.853 393.07 467.542 392.597 464.521 391.493C458.07 389.135 451.892 386.312 446.13 381.893Z" fill="black"/>
<path d="M747.59 764.646C746.205 770.38 745.133 775.773 743.449 780.967C739.141 794.257 729.878 802.322 716.41 805.697C715.606 805.899 714.819 806.171 714.02 806.393C712.061 806.937 710.006 807.46 709.839 809.978C709.672 812.508 711.827 813.247 713.537 814.163C715.142 815.023 716.85 815.73 718.575 816.321C736.174 822.352 744.867 835.121 746.651 853.197C747.057 857.317 747.551 861.437 748.239 865.517C748.561 867.423 748.994 869.911 751.479 869.975C754.316 870.047 754.766 867.3 755.042 865.298C755.902 859.054 756.877 852.85 758.163 846.669C761.662 829.854 770.755 818.368 787.989 814.25C789.953 813.78 791.968 813.001 792.166 810.577C792.372 808.062 790.379 807.268 788.479 806.515C788.015 806.332 787.572 806.079 787.094 805.948C767.728 800.632 759.44 786.679 757.312 767.866C756.735 762.758 755.998 757.668 755.249 752.582C754.976 750.73 754.433 748.844 752.006 748.905C749.865 748.959 749.274 750.766 749.027 752.364C748.418 756.292 748.075 760.262 747.59 764.646Z" fill="black"/>
<path d="M289.846 489.795C264.259 482.497 260.561 466.656 258.336 449.046C258.067 446.911 257.705 444.785 257.297 442.672C256.99 441.087 256.233 439.792 254.344 439.941C252.749 440.067 252.056 441.338 251.826 442.66C251.061 447.064 250.349 451.481 249.784 455.914C247.557 473.388 237.504 484.073 221.046 489.268C219.166 489.862 216.971 490.196 216.819 492.796C216.646 495.754 219.056 496.233 221.088 496.797C239.581 501.934 248.153 514.806 249.692 533.237C249.995 536.871 250.289 540.514 250.814 544.119C251.112 546.167 251.227 548.99 254.072 548.934C256.867 548.88 257.112 546.072 257.208 544.022C257.552 536.678 259.259 529.592 260.798 522.458C263.726 508.886 273.168 501.77 285.407 497.383C286.811 496.879 288.313 496.651 289.714 496.139C291.214 495.591 293.188 495.413 293.346 493.277C293.503 491.157 291.657 490.654 289.846 489.795Z" fill="black"/>
</svg>
