<!-- Two Hearts: 32x32 pixel grid, subtle shading, no background -->
<svg xmlns="http://www.w3.org/2000/svg" viewBox="0 0 32 32" shape-rendering="crispEdges">
  <!-- palette:
       red:       #e63946
       darkRed:   #c62828
       highlight: #ffb3c1
       white:     #ffffff
  -->

  <!-- LEFT HEART: base fill -->
  <g fill="#e63946">
    <rect x="5"  y="6"  width="2" height="1"/>
    <rect x="10" y="6"  width="2" height="1"/>

    <rect x="4"  y="7"  width="4" height="1"/>
    <rect x="9"  y="7"  width="4" height="1"/>

    <rect x="3"  y="8"  width="11" height="1"/>
    <rect x="3"  y="9"  width="11" height="1"/>

    <rect x="4"  y="10" width="9" height="1"/>
    <rect x="5"  y="11" width="7" height="1"/>
    <rect x="6"  y="12" width="5" height="1"/>
    <rect x="7"  y="13" width="3" height="1"/>
    <rect x="8"  y="14" width="1" height="1"/>
  </g>

  <!-- LEFT HEART: subtle outline / shadow -->
  <g fill="#c62828">
    <rect x="5"  y="6"  width="1" height="1"/>
    <rect x="11" y="6"  width="1" height="1"/>

    <rect x="4"  y="7"  width="1" height="1"/>
    <rect x="12" y="7"  width="1" height="1"/>

    <rect x="3"  y="8"  width="1" height="1"/>
    <rect x="13" y="8"  width="1" height="1"/>
    <rect x="3"  y="9"  width="1" height="1"/>
    <rect x="13" y="9"  width="1" height="1"/>

    <rect x="4"  y="10" width="1" height="1"/>
    <rect x="12" y="10" width="1" height="1"/>
    <rect x="5"  y="11" width="1" height="1"/>
    <rect x="11" y="11" width="1" height="1"/>
    <rect x="6"  y="12" width="1" height="1"/>
    <rect x="10" y="12" width="1" height="1"/>
    <rect x="7"  y="13" width="1" height="1"/>
    <rect x="9"  y="13" width="1" height="1"/>
    <rect x="8"  y="14" width="1" height="1"/>
  </g>

  <!-- LEFT HEART: highlights (sparkle) -->
  <g fill="#ffffff">
    <rect x="6" y="6" width="1" height="1"/>
  </g>
  <g fill="#ffb3c1">
    <rect x="5" y="7" width="1" height="1"/>
    <rect x="6" y="8" width="1" height="1"/>
  </g>

  <!-- RIGHT HEART: base fill (offset +16 on x) -->
  <g fill="#e63946">
    <rect x="21" y="6"  width="2" height="1"/>
    <rect x="26" y="6"  width="2" height="1"/>

    <rect x="20" y="7"  width="4" height="1"/>
    <rect x="25" y="7"  width="4" height="1"/>

    <rect x="19" y="8"  width="11" height="1"/>
    <rect x="19" y="9"  width="11" height="1"/>

    <rect x="20" y="10" width="9" height="1"/>
    <rect x="21" y="11" width="7" height="1"/>
    <rect x="22" y="12" width="5" height="1"/>
    <rect x="23" y="13" width="3" height="1"/>
    <rect x="24" y="14" width="1" height="1"/>
  </g>

  <!-- RIGHT HEART: subtle outline / shadow -->
  <g fill="#c62828">
    <rect x="21" y="6"  width="1" height="1"/>
    <rect x="27" y="6"  width="1" height="1"/>

    <rect x="20" y="7"  width="1" height="1"/>
    <rect x="28" y="7"  width="1" height="1"/>

    <rect x="19" y="8"  width="1" height="1"/>
    <rect x="29" y="8"  width="1" height="1"/>
    <rect x="19" y="9"  width="1" height="1"/>
    <rect x="29" y="9"  width="1" height="1"/>

    <rect x="20" y="10" width="1" height="1"/>
    <rect x="28" y="10" width="1" height="1"/>
    <rect x="21" y="11" width="1" height="1"/>
    <rect x="27" y="11" width="1" height="1"/>
    <rect x="22" y="12" width="1" height="1"/>
    <rect x="26" y="12" width="1" height="1"/>
    <rect x="23" y="13" width="1" height="1"/>
    <rect x="25" y="13" width="1" height="1"/>
    <rect x="24" y="14" width="1" height="1"/>
  </g>

  <!-- RIGHT HEART: highlights -->
  <g fill="#ffffff">
    <rect x="22" y="6" width="1" height="1"/>
  </g>
  <g fill="#ffb3c1">
    <rect x="21" y="7" width="1" height="1"/>
    <rect x="22" y="8" width="1" height="1"/>
  </g>
</svg>
