<svg xmlns="http://www.w3.org/2000/svg" viewBox="0 0 32 32" shape-rendering="crispEdges">
  <!-- palette -->
  <!-- dark green: #2e7d32 | mid green: #66bb6a | light green: #a5d6a7 -->
  <!-- belly light: #e6f2b3 | belly shade: #d1e59a -->
  <!-- black: #000000 | white: #ffffff | cheek pink: #f48fb1 -->

  <!-- HEAD + BODY -->
  <g fill="#66bb6a">
    <rect x="10" y="5"  width="12" height="2"/> <!-- top head -->
    <rect x="9"  y="7"  width="14" height="2"/>
    <rect x="8"  y="9"  width="16" height="2"/>
    <rect x="8"  y="11" width="16" height="2"/>
    <rect x="9"  y="13" width="14" height="2"/>
    <rect x="10" y="15" width="12" height="2"/>
    <rect x="9"  y="17" width="14" height="2"/> <!-- shoulders -->
    <rect x="8"  y="19" width="16" height="2"/> <!-- belly sides -->
    <rect x="7"  y="21" width="18" height="2"/> <!-- thighs -->
  </g>

  <!-- BELLY -->
  <g fill="#e6f2b3">
    <rect x="11" y="15" width="10" height="1"/>
    <rect x="10" y="16" width="12" height="1"/>
    <rect x="10" y="17" width="12" height="1"/>
    <rect x="11" y="18" width="10" height="1"/>
    <rect x="12" y="19" width="8"  height="1"/>
    <rect x="12" y="20" width="8"  height="1"/>
  </g>
  <g fill="#d1e59a">
    <rect x="10" y="17" width="2" height="1"/>
    <rect x="20" y="17" width="2" height="1"/>
  </g>

  <!-- EYE BUMPS -->
  <g fill="#66bb6a">
    <rect x="9"  y="4" width="2" height="1"/>
    <rect x="21" y="4" width="2" height="1"/>
  </g>

  <!-- EYES -->
  <g fill="#000000">
    <rect x="10" y="5" width="2" height="2"/>
    <rect x="20" y="5" width="2" height="2"/>
  </g>
  <g fill="#ffffff">
    <rect x="11" y="5" width="1" height="1"/>
    <rect x="21" y="5" width="1" height="1"/>
  </g>

  <!-- CHEEKS -->
  <g fill="#f48fb1">
    <rect x="9"  y="12" width="2" height="1"/>
    <rect x="21" y="12" width="2" height="1"/>
  </g>

  <!-- SMILE -->
  <g fill="#000000">
    <rect x="13" y="14" width="1" height="1"/>
    <rect x="18" y="14" width="1" height="1"/>
    <rect x="14" y="15" width="4" height="1"/>
  </g>

  <!-- FEET -->
  <g fill="#66bb6a">
    <rect x="8"  y="23" width="4" height="2"/>
    <rect x="20" y="23" width="4" height="2"/>
  </g>
  <g fill="#a5d6a7">
    <rect x="9"  y="24" width="1" height="1"/>
    <rect x="22" y="24" width="1" height="1"/>
  </g>

  <!-- SHADOWS -->
  <g fill="#2e7d32">
    <rect x="8"  y="9"  width="1" height="2"/>
    <rect x="23" y="9"  width="1" height="2"/>
    <rect x="7"  y="21" width="1" height="2"/>
    <rect x="24" y="21" width="1" height="2"/>
  </g>
</svg>
